<svg width="25" height="25" viewBox="0 0 10 9" fill="none" xmlns="http://www.w3.org/2000/svg">
<path d="M4.64417 0.422574C4.70582 0.232849 4.97423 0.232849 5.03587 0.422574L5.90341 3.09257C5.93097 3.17742 6.01004 3.23486 6.09926 3.23486H8.90666C9.10615 3.23486 9.18909 3.49014 9.0277 3.60739L6.75646 5.25754C6.68429 5.30998 6.65409 5.40293 6.68166 5.48778L7.54919 8.15777C7.61084 8.3475 7.39369 8.50527 7.2323 8.38801L4.96106 6.73786C4.88889 6.68542 4.79115 6.68542 4.71898 6.73786L2.44774 8.38801C2.28635 8.50527 2.06921 8.3475 2.13085 8.15777L2.99839 5.48778C3.02595 5.40293 2.99575 5.30998 2.92358 5.25754L0.652343 3.60739C0.490953 3.49014 0.573897 3.23486 0.773386 3.23486H3.58079C3.67 3.23486 3.74907 3.17742 3.77664 3.09257L4.64417 0.422574Z" fill="#F1CC4A"/>
</svg>
