<svg width="8" height="8" viewBox="0 0 8 8" fill="none" xmlns="http://www.w3.org/2000/svg">
<g clip-path="url(#clip0_2_162)">
<path d="M3.97526 2.1437C3.0496 2.1437 2.30296 2.8865 2.30296 3.80739C2.30296 4.72828 3.0496 5.47108 3.97526 5.47108C4.90093 5.47108 5.64757 4.72828 5.64757 3.80739C5.64757 2.8865 4.90093 2.1437 3.97526 2.1437ZM3.97526 4.88901C3.37708 4.88901 2.88805 4.40394 2.88805 3.80739C2.88805 3.21084 3.37562 2.72578 3.97526 2.72578C4.57491 2.72578 5.06248 3.21084 5.06248 3.80739C5.06248 4.40394 4.57345 4.88901 3.97526 4.88901ZM6.10603 2.07565C6.10603 2.29139 5.93138 2.4637 5.71598 2.4637C5.49911 2.4637 5.32592 2.28995 5.32592 2.07565C5.32592 1.86136 5.50057 1.6876 5.71598 1.6876C5.93138 1.6876 6.10603 1.86136 6.10603 2.07565ZM7.21363 2.46949C7.18888 1.94968 7.06954 1.48923 6.68676 1.10987C6.30543 0.730511 5.8426 0.61178 5.32009 0.585717C4.78158 0.55531 3.16749 0.55531 2.62898 0.585717C2.10793 0.610332 1.6451 0.729063 1.26232 1.10842C0.879537 1.48779 0.761646 1.94823 0.735448 2.46804C0.704883 3.00378 0.704883 4.60955 0.735448 5.14529C0.76019 5.6651 0.879537 6.12555 1.26232 6.50491C1.6451 6.88427 2.10648 7.003 2.62898 7.02907C3.16749 7.05947 4.78158 7.05947 5.32009 7.02907C5.8426 7.00445 6.30543 6.88572 6.68676 6.50491C7.06808 6.12555 7.18743 5.6651 7.21363 5.14529C7.24419 4.60955 7.24419 3.00523 7.21363 2.46949ZM6.51792 5.72012C6.4044 6.00392 6.18463 6.22256 5.89791 6.33695C5.46855 6.50636 4.44974 6.46726 3.97526 6.46726C3.50079 6.46726 2.48052 6.50491 2.05262 6.33695C1.76736 6.22401 1.54759 6.00537 1.43261 5.72012C1.26232 5.29298 1.30162 4.27942 1.30162 3.80739C1.30162 3.33536 1.26377 2.32035 1.43261 1.89466C1.54613 1.61086 1.7659 1.39222 2.05262 1.27783C2.48198 1.10842 3.50079 1.14752 3.97526 1.14752C4.44974 1.14752 5.47001 1.10987 5.89791 1.27783C6.18317 1.39077 6.40294 1.60941 6.51792 1.89466C6.68821 2.3218 6.64891 3.33536 6.64891 3.80739C6.64891 4.27942 6.68821 5.29443 6.51792 5.72012Z" fill="white"/>
</g>
<defs>
<clipPath id="clip0_2_162">
<rect width="6.58976" height="7.41348" fill="white" transform="translate(0.731018 0.101898)"/>
</clipPath>
</defs>
</svg>
